HIERARCHY
ROOT root
{
	OFFSET	0	13.1	24.9
	CHANNELS 6  Xposition Yposition Zposition Xrotation Yrotation Zrotation
	JOINT spine_1
	{
		OFFSET	0	9.99999	0
		CHANNELS 3  Xrotation Yrotation Zrotation
		JOINT spine_2
		{
			OFFSET	0	112	-10
			CHANNELS 3  Xrotation Yrotation Zrotation
			JOINT spine_3
			{
				OFFSET	0	206.5	19.3
				CHANNELS 3  Xrotation Yrotation Zrotation
				JOINT spine_4
				{
					OFFSET	0	110.4	14.6
					CHANNELS 3  Xrotation Yrotation Zrotation
					JOINT neck_1
					{
						OFFSET	0	71.8	-50.3
						CHANNELS 3  Xrotation Yrotation Zrotation
						JOINT neck_2
						{
							OFFSET	0	86.2	-25.8
							CHANNELS 3  Xrotation Yrotation Zrotation
							JOINT head_ee
							{
								OFFSET	0	179.8	-8.7
								CHANNELS 3  Xrotation Yrotation Zrotation
								End Site
								{
									OFFSET	1	0	0
								}
							}
						}
					}
					JOINT left_clavicle
					{
						OFFSET	-43.2	22.4	-70.8
						CHANNELS 3  Xrotation Yrotation Zrotation
						JOINT left_shoulder
						{
							OFFSET	-93.9	-5.79999	48.7
							CHANNELS 3  Xrotation Yrotation Zrotation
							JOINT left_elbow
							{
								OFFSET	-291.4	-30.8	15.2
								CHANNELS 3  Xrotation Yrotation Zrotation
								JOINT left_lowarm_twist
								{
									OFFSET	-110.7	-3.89999	13.6
									CHANNELS 3  Xrotation Yrotation Zrotation
									JOINT left_hand
									{
										OFFSET	-110.7	-3.89999	13.6
										CHANNELS 3  Xrotation Yrotation Zrotation
										JOINT left_ee
										{
											OFFSET	-80.8	-5.10001	12.1
											CHANNELS 3  Xrotation Yrotation Zrotation
											End Site
											{
												OFFSET	1	0	0
											}
										}
									}
								}
							}
						}
					}
					JOINT right_clavicle
					{
						OFFSET	43.2	22.4	-70.8
						CHANNELS 3  Xrotation Yrotation Zrotation
						JOINT right_shoulder
						{
							OFFSET	93.9	-5.79999	48.7
							CHANNELS 3  Xrotation Yrotation Zrotation
							JOINT right_elbow
							{
								OFFSET	291.4	-30.8	15.2
								CHANNELS 3  Xrotation Yrotation Zrotation
								JOINT right_lowarm_twist
								{
									OFFSET	110.7	-3.89999	13.6
									CHANNELS 3  Xrotation Yrotation Zrotation
									JOINT right_hand
									{
										OFFSET	110.7	-3.89999	13.6
										CHANNELS 3  Xrotation Yrotation Zrotation
										JOINT right_ee
										{
											OFFSET	80.8	-5.10001	12.1
											CHANNELS 3  Xrotation Yrotation Zrotation
											End Site
											{
												OFFSET	1	0	0
											}
										}
									}
								}
							}
						}
					}
				}
			}
		}
	}
	JOINT left_hip
	{
		OFFSET	-82.8	-127.5	0.300001
		CHANNELS 3  Xrotation Yrotation Zrotation
		JOINT left_knee
		{
			OFFSET	-28.2	-396.7	2.2
			CHANNELS 3  Xrotation Yrotation Zrotation
			JOINT left_ankle
			{
				OFFSET	-11.7	-411.3	35.4
				CHANNELS 3  Xrotation Yrotation Zrotation
				JOINT left_toes
				{
					OFFSET	0	-60	-88.6
					CHANNELS 3  Xrotation Yrotation Zrotation
					JOINT left_foot_ee
					{
						OFFSET	-22.5	-16.5	-42.2
						CHANNELS 3  Xrotation Yrotation Zrotation
						End Site
						{
							OFFSET	1	0	0
						}
					}
				}
			}
		}
	}
	JOINT right_hip
	{
		OFFSET	82.8	-127.5	0.300001
		CHANNELS 3  Xrotation Yrotation Zrotation
		JOINT right_knee
		{
			OFFSET	28.2	-396.7	2.2
			CHANNELS 3  Xrotation Yrotation Zrotation
			JOINT right_ankle
			{
				OFFSET	11.7	-411.3	35.4
				CHANNELS 3  Xrotation Yrotation Zrotation
				JOINT right_toes
				{
					OFFSET	0	-60	-88.6
					CHANNELS 3  Xrotation Yrotation Zrotation
					JOINT right_foot_ee
					{
						OFFSET	22.5	-16.5	-42.2
						CHANNELS 3  Xrotation Yrotation Zrotation
						End Site
						{
							OFFSET	1	0	0
						}
					}
				}
			}
		}
	}
}
MOTION
Frames: 14
Frame Time: 0.02
836.036838409 619.425 -1817.67286055 -9.93780813238 25.6897864662 13.17259845 5.44619 -0.519316 -3.59092 5.45332 -0.289917 -3.61664 5.46458 0.131983 -3.62583 5.4465 -0.441927 -3.60125 -0.921245 0.208142 7.32228 -0.728782 -5.54276 7.8351 -0.0 0.0 -0.0 7.51326 6.06201 14.4777 -10.6301 -43.5834 50.3691 0.856754 -22.9967 0.174286 37.5304 -0.227081 -4.70426 -0.818496 -5.09587 -7.69889 -0.0 0.0 -0.0 5.50671 9.6794 -10.2636 -22.7055 -16.23 -66.0615 1.53121 37.1784 -0.515015 72.7409 3.02963 8.14881 1.60692 -15.9021 -16.6335 0.0 0.0 0.0 23.6022 -9.58393 -7.29145 -7.66815 0.23894 1.1517 33.2087 4.8641 -4.22177 -18.8425 0.0 0.0 -0.0 0.0 -0.0 37.0404 3.97192 -1.19669 -61.4499 2.35856 -8.68321 31.62 2.7919 4.10626 25.1775 -0.0 -0.0 0.0 0.0 0.0 
824.557142648 617.978 -1827.80054882 -10.4572061944 25.2743013456 12.5783845619 5.81537 -0.565618 -3.58604 5.82246 -0.336436 -3.61471 5.83591 0.0619057 -3.62979 5.8179 -0.511752 -3.59411 -2.00964 -0.521218 8.69866 -1.72948 -7.84705 9.1119 -0.0 0.0 -0.0 7.98983 6.72314 15.347 -8.94739 -43.3622 50.4603 0.803399 -21.7015 0.153996 34.2929 -0.0861583 -4.31514 -0.973229 -11.4861 -11.5188 -0.0 0.0 -0.0 4.55797 7.51773 -8.4217 -24.4273 -16.5143 -67.2777 1.63731 39.0416 -0.580506 71.5303 2.90069 8.06215 1.44197 -16.2359 -15.681 0.0 0.0 0.0 22.3407 -6.3931 -5.98052 -3.99488 0.143744 0.596117 33.8996 4.89661 -4.29076 -19.39 0.0 0.0 -0.0 0.0 -0.0 41.3284 1.60149 1.83213 -64.9494 2.75746 -9.04723 34.6561 4.48744 4.43312 24.7251 -0.0 -0.0 0.0 0.0 0.0 
824.158641127 622.354 -1831.39967301 -14.2533196187 23.1009821068 15.0548401746 6.40977 -0.479092 -3.72023 6.41744 -0.241562 -3.74314 6.42361 0.132008 -3.74859 6.4043 -0.46125 -3.72248 -1.69796 -2.33894 7.88365 -1.41575 -10.4959 8.05905 -0.0 0.0 -0.0 9.48227 7.88851 18.0895 -12.7285 -43.3162 43.3623 0.919999 -24.5003 0.199758 33.1935 -0.0433399 -4.1813 -1.50285 -20.8721 -19.0785 -0.0 0.0 -0.0 4.28469 4.96582 -8.01458 -25.6909 -21.4023 -69.6666 1.74794 40.885 -0.651574 63.7132 2.11542 7.43959 1.42181 -15.0503 -15.1538 0.0 0.0 0.0 26.1213 -1.77132 -7.58889 -0.054848 0.00225453 0.00811499 31.9403 7.05347 -4.09271 -21.6527 0.0 0.0 -0.0 0.0 -0.0 47.2402 8.94687 -3.68589 -55.4145 1.7257 -8.00122 30.0128 -5.34164 3.8898 24.4326 -0.0 -0.0 0.0 0.0 0.0 
826.15105694 622.354 -1834.26414209 -14.1752358739 22.3652656692 14.8527849922 6.40977 -0.479092 -3.72023 6.41744 -0.241562 -3.74314 6.42361 0.132008 -3.74859 6.4043 -0.46125 -3.72248 -1.69796 -2.33894 7.88365 -1.41575 -10.4959 8.05905 -0.0 0.0 -0.0 9.48227 7.88851 18.0895 -12.7285 -43.3162 43.3623 0.919999 -24.5003 0.199758 33.1935 -0.0433399 -4.1813 -1.50285 -20.8721 -19.0785 -0.0 0.0 -0.0 4.28469 4.96582 -8.01458 -25.6909 -21.4023 -69.6666 1.74794 40.885 -0.651574 63.7132 2.11542 7.43959 1.42181 -15.0503 -15.1538 0.0 0.0 0.0 26.1213 -1.77132 -7.58889 -0.054848 0.00225453 0.00811499 31.9403 7.05347 -4.09271 -21.6527 0.0 0.0 -0.0 0.0 -0.0 47.2402 8.94687 -3.68589 -55.4145 1.7257 -8.00122 30.0128 -5.34164 3.8898 24.4326 -0.0 -0.0 0.0 0.0 0.0 
818.37117425 622.175 -1845.67783714 -15.846680417 20.0642962296 14.8539702314 6.78876 -0.331028 -3.47567 6.79548 -0.109328 -3.48967 6.79311 0.216088 -3.48469 6.77633 -0.336626 -3.47513 -1.15447 -4.00739 7.63287 -0.819506 -13.3217 7.67203 -0.0 0.0 -0.0 8.77796 8.90733 16.6837 -8.79355 -44.2008 46.0864 0.901025 -24.0529 0.191957 29.3509 0.0859618 -3.70765 -1.96338 -28.044 -24.97 -0.0 0.0 -0.0 3.8968 2.02023 -7.40738 -25.7661 -25.71 -70.0532 1.79824 41.6906 -0.684763 58.1706 1.61379 6.93662 0.958399 -14.4068 -11.9566 0.0 0.0 0.0 26.6539 1.42561 -7.54362 3.23078 -0.146463 -0.474028 31.8858 7.86247 -4.08861 -20.9857 0.0 0.0 -0.0 0.0 -0.0 48.1015 15.3454 -5.5142 -40.615 0.506353 -6.08414 18.1373 -11.4707 2.50385 23.9752 -0.0 -0.0 0.0 0.0 0.0 
813.779149629 620.559 -1854.27337175 -15.7681530384 19.0699271242 14.3628031806 6.68456 -0.386624 -3.56932 6.69164 -0.158865 -3.58666 6.69224 0.182039 -3.58556 6.67451 -0.386148 -3.56937 -0.691258 -4.74963 7.79339 -0.30005 -14.7981 7.8375 -0.0 0.0 -0.0 9.04547 9.48293 17.1329 -6.85343 -42.3128 47.6228 0.940396 -24.9778 0.208294 27.6218 0.133715 -3.49195 -1.83492 -28.1152 -24.1074 -0.0 0.0 -0.0 3.41891 2.10738 -6.46081 -24.7291 -29.2913 -70.4475 1.81511 41.9564 -0.696015 54.5652 1.31467 6.5846 1.17034 -13.7776 -13.0918 0.0 0.0 0.0 26.5059 2.06262 -7.0484 3.62673 -0.166249 -0.531545 33.2976 8.20377 -4.23398 -22.6741 0.0 0.0 -0.0 0.0 -0.0 48.2808 16.1715 -5.65691 -39.6249 0.443074 -5.94571 17.1058 -15.0892 2.38728 25.0499 -0.0 -0.0 0.0 0.0 0.0 
746.611943273 615.246 -1920.27885667 -13.8849213802 26.6884773293 11.110235291 6.66456 -0.0100216 -1.97644 6.66673 0.11574 -1.97307 6.65999 0.303527 -1.95303 6.65466 -0.00866383 -1.97644 0.990272 2.60568 3.68599 1.02486 1.54686 4.25535 -0.0 0.0 -0.0 2.33201 15.0972 5.50803 -18.3881 -48.5861 54.4736 1.33616 -33.4986 0.402137 22.5955 0.235301 -2.85812 -1.91914 -20.1972 -21.7286 -0.0 0.0 -0.0 3.11686 -1.47015 -6.10059 -3.37056 -52.3663 -64.5502 0.645889 17.7424 -0.100812 44.6679 0.614058 5.53052 0.68192 -8.66202 -8.02472 0.0 0.0 0.0 17.0877 10.2401 -5.55623 -1.78601 0.0694073 0.265292 35.3306 10.5924 -4.44762 -19.4424 0.0 0.0 -0.0 0.0 -0.0 35.3097 9.82603 -2.05815 -20.2571 -0.292494 -3.07868 5.72934 -18.3278 0.838866 21.3473 -0.0 -0.0 0.0 0.0 0.0 
747.561586633 615.246 -1921.45100408 -13.8575531501 26.4669430965 11.0490652157 6.66456 -0.0100216 -1.97644 6.66673 0.11574 -1.97307 6.65999 0.303527 -1.95303 6.65466 -0.00866383 -1.97644 0.990272 2.60568 3.68599 1.02486 1.54686 4.25535 -0.0 0.0 -0.0 2.33201 15.0972 5.50803 -18.3881 -48.5861 54.4736 1.33616 -33.4986 0.402137 22.5955 0.235301 -2.85812 -1.91914 -20.1972 -21.7286 -0.0 0.0 -0.0 3.11686 -1.47015 -6.10059 -3.37056 -52.3663 -64.5502 0.645889 17.7424 -0.100812 44.6679 0.614058 5.53052 0.68192 -8.66202 -8.02472 0.0 0.0 0.0 17.0877 10.2401 -5.55623 -1.78601 0.0694073 0.265292 35.3306 10.5924 -4.44762 -19.4424 0.0 0.0 -0.0 0.0 -0.0 35.3097 9.82603 -2.05815 -20.2571 -0.292494 -3.07868 5.72934 -18.3278 0.838866 21.3473 -0.0 -0.0 0.0 0.0 0.0 
731.05821199 614.764 -1925.00897421 -14.6062703912 29.2549645037 10.6532304289 7.13578 0.00386103 -1.6055 7.13721 0.106002 -1.602 7.13225 0.245311 -1.58666 7.12874 -0.00831756 -1.60548 -0.941716 4.26712 2.32046 -0.914255 5.78147 2.97043 -0.0 0.0 -0.0 1.45059 18.9117 4.38307 -19.6605 -50.7272 55.2393 1.22336 -31.2153 0.341755 20.7635 0.258444 -2.62527 -1.3814 -17.314 -16.7942 -0.0 0.0 -0.0 2.37577 -1.73525 -4.70954 -1.57254 -52.4277 -66.0178 0.452829 12.6434 -0.0501665 48.0776 0.83465 5.907 0.999705 -7.46499 -9.64766 0.0 0.0 0.0 14.6756 13.1911 -3.80329 2.62954 -0.117182 -0.386436 31.2365 13.1451 -4.05005 -19.8046 0.0 0.0 -0.0 0.0 -0.0 33.29 4.93222 0.71459 -17.943 -0.31445 -2.72433 0.211062 -17.4421 0.0312596 20.6404 -0.0 -0.0 0.0 0.0 0.0 
731.749388858 614.764 -1925.8906036 -14.5833450651 29.0972734124 10.6062037584 7.13578 0.00386103 -1.6055 7.13721 0.106002 -1.602 7.13225 0.245311 -1.58666 7.12874 -0.00831756 -1.60548 -0.941716 4.26712 2.32046 -0.914255 5.78147 2.97043 -0.0 0.0 -0.0 1.45059 18.9117 4.38307 -19.6605 -50.7272 55.2393 1.22336 -31.2153 0.341755 20.7635 0.258444 -2.62527 -1.3814 -17.314 -16.7942 -0.0 0.0 -0.0 2.37577 -1.73525 -4.70954 -1.57254 -52.4277 -66.0178 0.452829 12.6434 -0.0501665 48.0776 0.83465 5.907 0.999705 -7.46499 -9.64766 0.0 0.0 0.0 14.6756 13.1911 -3.80329 2.62954 -0.117182 -0.386436 31.2365 13.1451 -4.05005 -19.8046 0.0 0.0 -0.0 0.0 -0.0 33.29 4.93222 0.71459 -17.943 -0.31445 -2.72433 0.211062 -17.4421 0.0312596 20.6404 -0.0 -0.0 0.0 0.0 0.0 
732.219718854 614.764 -1926.48759217 -14.5678964035 28.9902843242 10.574382209 7.13578 0.00386103 -1.6055 7.13721 0.106002 -1.602 7.13225 0.245311 -1.58666 7.12874 -0.00831756 -1.60548 -0.941716 4.26712 2.32046 -0.914255 5.78147 2.97043 -0.0 0.0 -0.0 1.45059 18.9117 4.38307 -19.6605 -50.7272 55.2393 1.22336 -31.2153 0.341755 20.7635 0.258444 -2.62527 -1.3814 -17.314 -16.7942 -0.0 0.0 -0.0 2.37577 -1.73525 -4.70954 -1.57254 -52.4277 -66.0178 0.452829 12.6434 -0.0501665 48.0776 0.83465 5.907 0.999705 -7.46499 -9.64766 0.0 0.0 0.0 14.6756 13.1911 -3.80329 2.62954 -0.117182 -0.386436 31.2365 13.1451 -4.05005 -19.8046 0.0 0.0 -0.0 0.0 -0.0 33.29 4.93222 0.71459 -17.943 -0.31445 -2.72433 0.211062 -17.4421 0.0312596 20.6404 -0.0 -0.0 0.0 0.0 0.0 
734.260795275 614.764 -1929.05119169 -14.5022416528 28.5288951549 10.4379254429 7.13578 0.00386103 -1.6055 7.13721 0.106002 -1.602 7.13225 0.245311 -1.58666 7.12874 -0.00831756 -1.60548 -0.941716 4.26712 2.32046 -0.914255 5.78147 2.97043 -0.0 0.0 -0.0 1.45059 18.9117 4.38307 -19.6605 -50.7272 55.2393 1.22336 -31.2153 0.341755 20.7635 0.258444 -2.62527 -1.3814 -17.314 -16.7942 -0.0 0.0 -0.0 2.37577 -1.73525 -4.70954 -1.57254 -52.4277 -66.0178 0.452829 12.6434 -0.0501665 48.0776 0.83465 5.907 0.999705 -7.46499 -9.64766 0.0 0.0 0.0 14.6756 13.1911 -3.80329 2.62954 -0.117182 -0.386436 31.2365 13.1451 -4.05005 -19.8046 0.0 0.0 -0.0 0.0 -0.0 33.29 4.93222 0.71459 -17.943 -0.31445 -2.72433 0.211062 -17.4421 0.0312596 20.6404 -0.0 -0.0 0.0 0.0 0.0 
726.740534802 615.893 -1931.55935949 -13.3611528591 29.8845457548 9.41410514013 6.81623 -0.0988539 -1.53827 6.81755 -0.000781456 -1.54144 6.81581 0.142092 -1.53488 6.81254 -0.102068 -1.53806 -1.77173 4.50264 2.11919 -1.74439 6.43361 2.81146 -0.0 0.0 -0.0 0.329312 19.945 2.80943 -17.0107 -52.2472 59.8234 1.08471 -28.2498 0.272969 23.0335 0.228665 -2.91368 -1.40885 -13.0823 -15.2138 -0.0 0.0 -0.0 2.20112 -3.45778 -4.51123 1.02632 -51.2769 -64.6974 0.392868 11.0132 -0.0378747 48.2173 0.84416 5.92213 1.23851 -6.25824 -10.768 0.0 0.0 0.0 12.6101 12.6589 -2.69232 3.09691 -0.139864 -0.45455 28.7104 14.9197 -3.79146 -21.1692 0.0 0.0 -0.0 0.0 -0.0 30.483 0.85482 2.58458 -15.3065 -0.322006 -2.31992 -2.88603 -16.5861 -0.429315 18.085 -0.0 -0.0 0.0 0.0 0.0 
718.896293533 613.889 -1933.85935326 -12.4777079007 30.3035555441 8.31281626842 6.43006 0.0848255 -1.2924 6.43097 0.166886 -1.28439 6.42615 0.293831 -1.26142 6.42394 0.0909429 -1.29199 -1.16962 5.06264 1.10738 -1.13112 8.20522 1.78481 -0.0 0.0 -0.0 -0.212122 19.8195 1.99948 -17.8631 -52.7132 62.243 1.02259 -26.8644 0.244229 23.5369 0.220513 -2.97747 -1.30911 -11.9446 -14.035 -0.0 0.0 -0.0 2.05202 -1.97503 -4.11491 1.90701 -51.8491 -65.2136 0.331094 9.31459 -0.0269725 49.7863 0.953557 6.09062 1.41747 -6.77871 -12.1594 0.0 0.0 0.0 11.4506 15.3483 -1.49074 2.50783 -0.111366 -0.368668 29.5066 17.2242 -3.90688 -20.4048 0.0 0.0 -0.0 0.0 -0.0 30.5908 -1.65253 3.98113 -17.5389 -0.316816 -2.66237 -2.06321 -15.4562 -0.305605 19.5267 -0.0 -0.0 0.0 0.0 0.0 
